<svg width="54" height="54" viewBox="0 0 54 54" fill="none" xmlns="http://www.w3.org/2000/svg">
<path d="M14.8141 24.4279C18.0163 30.721 23.1753 35.8801 29.4685 39.0823L34.3607 34.1901C34.9833 33.5674 35.8506 33.3895 36.6289 33.6341C39.1195 34.4569 41.788 34.9017 44.5676 34.9017C45.1574 34.9017 45.723 35.1359 46.1401 35.553C46.5571 35.97 46.7914 36.5356 46.7914 37.1254V44.9085C46.7914 45.4982 46.5571 46.0638 46.1401 46.4809C45.723 46.8979 45.1574 47.1322 44.5676 47.1322C34.5415 47.1322 24.9261 43.1493 17.8365 36.0598C10.747 28.9703 6.76416 19.3548 6.76416 9.32871C6.76416 8.73894 6.99845 8.17333 7.41548 7.7563C7.83251 7.33927 8.39812 7.10498 8.98789 7.10498H16.771C17.3607 7.10498 17.9263 7.33927 18.3434 7.7563C18.7604 8.17333 18.9947 8.73894 18.9947 9.32871C18.9947 12.1084 19.4394 14.7769 20.2622 17.2674C20.5068 18.0458 20.3289 18.913 19.7063 19.5357L14.8141 24.4279Z" fill="black"/>
</svg>
